# xmcd
# Track frame offsets:
# 150
# 11540
# 22570
# 33930
# 44045
# 55640
# 68105
# 78252
# 89775
# 100245
# 111707
# 120645
#
# Disc length: 1808 seconds
# Revision: 0
# Processed by: cddbd v1.4PL0 Copyright (c) Steve Scherf et al.
# Submitted via: VisiTrax 2.9.5.180 - For more info visit www.synapsa.com
#
DISCID=96070e0c
DTITLE=Mr. Piano Man - Country Piano
DYEAR=1994
DGENRE=
TTITLE0=Last date
TTITLE1=Down yonder
TTITLE2=The dreams of Linda
TTITLE3=Sugar lips
TTITLE4=Old 88er
TTITLE5=The most beautiful girl
TTITLE6=San Antonio Rose
TTITLE7=Take these chains from m heart
TTITLE8=Doin' it up
TTITLE9=Long gone lonesome blues
TTITLE10=Java
TTITLE11=Music box dancer
EXTD=
EXTT0=
EXTT1=
EXTT2=
EXTT3=
EXTT4=
EXTT5=
EXTT6=
EXTT7=
EXTT8=
EXTT9=
EXTT10=
EXTT11=
PLAYORDER=
